<svg width="106" height="96" viewBox="0 0 106 96" fill="none" xmlns="http://www.w3.org/2000/svg">
<path d="M45.8386 64.6677L20.5 20.9248L33.086 31.025L49.1741 58.8904L45.8386 64.6677Z" fill="#5E47FF"/>
<path d="M69.6241 38.1848L44.4109 82.0002L46.8648 66.0502L62.9529 38.1848L69.6241 38.1848Z" fill="#5E47FF"/>
<path d="M34.9431 31.104L85.4949 31.0316L70.4549 36.8813H38.2787L34.9431 31.104Z" fill="#5E47FF"/>
<path d="M45.8386 64.6677L20.5 20.9248L33.086 31.025L49.1741 58.8904L45.8386 64.6677Z" fill="#5E47FF"/>
<path d="M69.6241 38.1848L44.4109 82.0002L46.8648 66.0502L62.9529 38.1848L69.6241 38.1848Z" fill="#5E47FF"/>
<g filter="url(#filter0_f_554_633)">
<path d="M34.9431 31.104L85.4949 31.0316L70.4549 36.8813H38.2787L34.9431 31.104Z" fill="#5E47FF"/>
</g>
<path d="M50.0829 55.5891L59.6131 39.0823H40.5527L50.0829 55.5891Z" fill="#57E1FF"/>
<g filter="url(#filter1_f_554_633)">
<path d="M45.8386 64.6677L20.5 20.9248L33.086 31.025L49.1741 58.8904L45.8386 64.6677Z" fill="#5E47FF"/>
</g>
<g filter="url(#filter2_f_554_633)">
<path d="M69.6241 38.1848L44.4109 82.0002L46.8648 66.0502L62.9529 38.1848L69.6241 38.1848Z" fill="#5E47FF"/>
</g>
<path d="M34.9431 31.104L85.4949 31.0316L70.4549 36.8813H38.2787L34.9431 31.104Z" fill="#5E47FF"/>
<defs>
<filter id="filter0_f_554_633" x="14.9431" y="11.0315" width="90.5518" height="45.8499" filterUnits="userSpaceOnUse" color-interpolation-filters="sRGB">
<feFlood flood-opacity="0" result="BackgroundImageFix"/>
<feBlend mode="normal" in="SourceGraphic" in2="BackgroundImageFix" result="shape"/>
<feGaussianBlur stdDeviation="10" result="effect1_foregroundBlur_554_633"/>
</filter>
<filter id="filter1_f_554_633" x="0.5" y="0.924805" width="68.6742" height="83.7429" filterUnits="userSpaceOnUse" color-interpolation-filters="sRGB">
<feFlood flood-opacity="0" result="BackgroundImageFix"/>
<feBlend mode="normal" in="SourceGraphic" in2="BackgroundImageFix" result="shape"/>
<feGaussianBlur stdDeviation="10" result="effect1_foregroundBlur_554_633"/>
</filter>
<filter id="filter2_f_554_633" x="24.4109" y="18.1848" width="65.2131" height="83.8154" filterUnits="userSpaceOnUse" color-interpolation-filters="sRGB">
<feFlood flood-opacity="0" result="BackgroundImageFix"/>
<feBlend mode="normal" in="SourceGraphic" in2="BackgroundImageFix" result="shape"/>
<feGaussianBlur stdDeviation="10" result="effect1_foregroundBlur_554_633"/>
</filter>
</defs>
</svg>
