<svg width="180" height="118" fill="none" xmlns="http://www.w3.org/2000/svg"><path d="M92.709 55.882h-8.115L80.36 75.357h8.74c6.29 0 8.156-3.462 8.178-6.194.02-2.38-1.332-3.354-2.607-3.773l.041-.217c1.789-.392 3.96-1.853 3.983-4.855.024-2.894-2.215-4.436-5.986-4.436Zm-6.588 15.5.858-3.869h3.45c1.32 0 2.102.541 2.092 1.664-.009 1.163-.897 2.204-2.762 2.204H86.12Zm1.716-7.845.802-3.679h3.185c1.319 0 2.048.5 2.04 1.569-.01 1.109-.844 2.11-2.75 2.11h-3.277ZM101.227 55.882l-4.234 19.475h13.953l.927-4.22h-8.89l3.307-15.255h-5.063ZM120.791 55.882l-9.547 19.07-.084.405h4.81l1.872-4.057h5.69l.113 4.057h4.61l.084-.405-1.259-19.07h-6.289Zm-1.051 11.334 3.282-7.1h.213l.183 7.1h-3.678Z" fill="#fff"/><path d="M137.917 55.882h-5.476l-4.235 19.475h6.742c8.488 0 11.271-6.33 11.314-11.739.041-5.018-3.255-7.736-8.345-7.736Zm-3.828 15.364 2.423-11.253h1.212c2.345 0 3.68 1.299 3.66 3.774-.029 3.61-1.845 7.479-5.736 7.479h-1.559ZM149.074 55.882l-4.235 19.475h14.524l.858-3.976h-9.567l.844-3.84h8.048l.858-3.977h-8.035l.803-3.706h9.381l.858-3.976h-14.337ZM100.517 33.34l-.9 4.165h5.517l-3.335 15.31h5.01l3.335-15.31h5.516l.9-4.165h-16.043ZM125.052 33.34h-7.875l-4.235 19.475h4.904l1.66-7.655h.267l3.949 7.655h4.97l.083-.405-3.979-7.222c4.853-.406 6.648-3.206 6.675-6.6.028-3.355-2.449-5.248-6.419-5.248Zm-4.771 8.25.941-4.274h3.131c1.519 0 2.38.609 2.371 1.799-.01 1.244-.9 2.475-3.112 2.475h-3.331Z" fill="#fff"/><path d="m137.381 33.34-9.548 19.07-.083.405h4.81l1.871-4.057h5.69l.114 4.057h4.61l.083-.405-1.258-19.07h-6.289Zm-1.051 11.334 3.282-7.1h.213l.182 7.1h-3.677Z" fill="#fff"/><path d="M154.507 33.34h-5.477l-4.234 19.475h6.742c8.487 0 11.27-6.33 11.314-11.739.04-5.018-3.256-7.736-8.345-7.736Zm-3.829 15.364 2.423-11.253h1.212c2.345 0 3.681 1.299 3.661 3.774-.029 3.61-1.846 7.479-5.737 7.479h-1.559ZM165.663 33.34l-4.234 19.475h14.523l.858-3.976h-9.567l.844-3.84h8.048l.858-3.977h-8.034l.803-3.706h9.38L180 33.34h-14.337Z" fill="#fff"/><path d="M46.714 75.41 15 20.66l15.753 12.643 20.136 34.876-4.175 7.231ZM76.485 42.263l-31.558 54.84L48 77.139l20.136-34.876h8.35ZM33.077 33.401l63.272-.09-18.825 7.321H37.252l-4.175-7.23Z" fill="#5E47FF"/><path d="M46.714 75.41 15 20.66l15.753 12.643 20.136 34.876-4.175 7.231ZM76.485 42.263l-31.558 54.84L48 77.139l20.136-34.876h8.35Z" fill="#5E47FF"/><g filter="url(#a)"><path d="m33.077 33.401 63.272-.09-18.825 7.321H37.252l-4.175-7.23Z" fill="#5E47FF"/></g><path d="m52.027 64.046 11.928-20.66H40.1l11.928 20.66Z" fill="#57E1FF"/><g filter="url(#b)"><path d="M46.714 75.41 15 20.66l15.753 12.643 20.136 34.876-4.175 7.231Z" fill="#5E47FF"/></g><g filter="url(#c)"><path d="m76.485 42.263-31.558 54.84L48 77.139l20.136-34.876h8.35Z" fill="#5E47FF"/></g><path d="m33.077 33.401 63.272-.09-18.825 7.321H37.252l-4.175-7.23Z" fill="#5E47FF"/><defs><filter id="a" x="13.077" y="13.31" width="103.272" height="47.322" filterUnits="userSpaceOnUse" color-interpolation-filters="sRGB"><feFlood flood-opacity="0" result="BackgroundImageFix"/><feBlend in="SourceGraphic" in2="BackgroundImageFix" result="shape"/><feGaussianBlur stdDeviation="10" result="effect1_foregroundBlur_185_459"/></filter><filter id="b" x="-5" y=".661" width="75.889" height="94.749" filterUnits="userSpaceOnUse" color-interpolation-filters="sRGB"><feFlood flood-opacity="0" result="BackgroundImageFix"/><feBlend in="SourceGraphic" in2="BackgroundImageFix" result="shape"/><feGaussianBlur stdDeviation="10" result="effect1_foregroundBlur_185_459"/></filter><filter id="c" x="24.927" y="22.263" width="71.557" height="94.84" filterUnits="userSpaceOnUse" color-interpolation-filters="sRGB"><feFlood flood-opacity="0" result="BackgroundImageFix"/><feBlend in="SourceGraphic" in2="BackgroundImageFix" result="shape"/><feGaussianBlur stdDeviation="10" result="effect1_foregroundBlur_185_459"/></filter></defs></svg>