<svg width="132" height="64" fill="none" xmlns="http://www.w3.org/2000/svg"><g clip-path="url(#a)"><path d="M62.087 31.066h-6.484l-3.383 15.56h6.983c5.025 0 6.517-2.766 6.534-4.95.016-1.9-1.064-2.679-2.083-3.014l.033-.173c1.43-.313 3.163-1.48 3.183-3.879.018-2.313-1.77-3.544-4.784-3.544Zm-5.264 12.383.685-3.09h2.758c1.053 0 1.678.432 1.67 1.329-.007.929-.716 1.761-2.206 1.761h-2.907Zm1.371-6.267.641-2.94h2.544c1.054 0 1.637.4 1.63 1.254-.007.886-.674 1.686-2.196 1.686h-2.619ZM68.892 31.066l-3.383 15.56h11.148l.74-3.371h-7.102l2.643-12.19h-4.046ZM84.523 31.066l-7.628 15.236-.066.324h3.843l1.495-3.242h4.546l.09 3.242h3.684l.067-.324-1.006-15.236h-5.025Zm-.84 9.055 2.623-5.673h.17l.146 5.673h-2.938Z" fill="#fff"/><path d="M98.206 31.066h-4.375l-3.383 15.56h5.387c6.781 0 9.004-5.057 9.039-9.38.032-4.008-2.601-6.18-6.668-6.18ZM95.148 43.34l1.935-8.99h.97c1.873 0 2.94 1.037 2.924 3.014-.024 2.886-1.475 5.976-4.584 5.976h-1.245ZM107.12 31.066l-3.383 15.56h11.604l.685-3.177h-7.643l.674-3.069h6.43l.686-3.177h-6.42l.642-2.96h7.494l.686-3.177H107.12ZM68.326 13.055l-.72 3.328h4.408L69.35 28.616h4.002l2.665-12.233h4.407l.719-3.328H68.326ZM87.927 13.055h-6.291l-3.383 15.56h3.917l1.327-6.116h.213l3.155 6.117h3.97l.067-.325-3.179-5.77c3.878-.324 5.312-2.56 5.334-5.273.021-2.68-1.957-4.193-5.13-4.193Zm-3.81 6.592.75-3.415h2.502c1.214 0 1.902.486 1.894 1.437-.008.994-.718 1.978-2.485 1.978h-2.662Z" fill="#fff"/><path d="M97.778 13.055 90.15 28.291l-.067.325h3.843l1.496-3.242h4.545l.091 3.242h3.684l.066-.325-1.005-15.236h-5.025Zm-.84 9.055 2.622-5.673h.17l.147 5.673h-2.939Z" fill="#fff"/><path d="M111.461 13.055h-4.375l-3.384 15.56h5.387c6.781 0 9.004-5.057 9.039-9.379.033-4.009-2.6-6.18-6.667-6.18Zm-3.059 12.276 1.936-8.99h.969c1.873 0 2.94 1.037 2.924 3.014-.023 2.885-1.475 5.976-4.583 5.976h-1.246ZM120.375 13.055l-3.384 15.56h11.604l.686-3.176h-7.644l.674-3.07h6.43l.686-3.176h-6.419l.641-2.96h7.495l.685-3.178h-11.454Z" fill="#fff"/><path d="M25.339 46.668 0 2.925l12.586 10.1L28.674 40.89l-3.335 5.778ZM49.124 20.185 23.911 64l2.454-15.95 16.088-27.865h6.671ZM14.443 13.104l50.552-.072-15.04 5.85H17.779l-3.336-5.778Z" fill="#5E47FF"/><path d="M25.339 46.668 0 2.925l12.586 10.1L28.674 40.89l-3.335 5.778ZM49.124 20.185 23.911 64l2.454-15.95 16.088-27.865h6.671Z" fill="#5E47FF"/><g filter="url(#b)"><path d="m14.443 13.104 50.552-.072-15.04 5.85H17.779l-3.336-5.778Z" fill="#5E47FF"/></g><path d="m29.583 37.59 9.53-16.508h-19.06l9.53 16.507Z" fill="#57E1FF"/><g filter="url(#c)"><path d="M25.339 46.668 0 2.925l12.586 10.1L28.674 40.89l-3.335 5.778Z" fill="#5E47FF"/></g><g filter="url(#d)"><path d="M49.124 20.185 23.911 64l2.454-15.95 16.088-27.865h6.671Z" fill="#5E47FF"/></g><path d="m14.443 13.104 50.552-.072-15.04 5.85H17.779l-3.336-5.778Z" fill="#5E47FF"/></g><defs><filter id="b" x="-5.557" y="-6.969" width="90.552" height="45.85" filterUnits="userSpaceOnUse" color-interpolation-filters="sRGB"><feFlood flood-opacity="0" result="BackgroundImageFix"/><feBlend in="SourceGraphic" in2="BackgroundImageFix" result="shape"/><feGaussianBlur stdDeviation="10" result="effect1_foregroundBlur_554_141"/></filter><filter id="c" x="-20" y="-17.075" width="68.674" height="83.743" filterUnits="userSpaceOnUse" color-interpolation-filters="sRGB"><feFlood flood-opacity="0" result="BackgroundImageFix"/><feBlend in="SourceGraphic" in2="BackgroundImageFix" result="shape"/><feGaussianBlur stdDeviation="10" result="effect1_foregroundBlur_554_141"/></filter><filter id="d" x="3.911" y=".185" width="65.213" height="83.815" filterUnits="userSpaceOnUse" color-interpolation-filters="sRGB"><feFlood flood-opacity="0" result="BackgroundImageFix"/><feBlend in="SourceGraphic" in2="BackgroundImageFix" result="shape"/><feGaussianBlur stdDeviation="10" result="effect1_foregroundBlur_554_141"/></filter><clipPath id="a"><path fill="#fff" d="M0 0h131.829v64H0z"/></clipPath></defs></svg>